<?xml version="1.0" encoding="UTF-8" standalone="no"?>
<svg
   xmlns:dc="http://purl.org/dc/elements/1.1/"
   xmlns:cc="http://creativecommons.org/ns#"
   xmlns:rdf="http://www.w3.org/1999/02/22-rdf-syntax-ns#"
   xmlns:svg="http://www.w3.org/2000/svg"
   xmlns="http://www.w3.org/2000/svg"
   viewBox="0 0 266.25 346.25"
   height="346.25"
   width="266.25"
   xml:space="preserve"
   version="1.1"
   id="svg2"><metadata
     id="metadata8"><rdf:RDF><cc:Work
         rdf:about=""><dc:format>image/svg+xml</dc:format><dc:type
           rdf:resource="http://purl.org/dc/dcmitype/StillImage" /></cc:Work></rdf:RDF></metadata><defs
     id="defs6"><clipPath
       id="clipPath16"
       clipPathUnits="userSpaceOnUse"><path
         id="path18"
         d="M 0,277 213,277 213,0 0,0 0,277 Z" /></clipPath></defs><g
     transform="matrix(1.25,0,0,-1.25,0,346.25)"
     id="g10"><g
       id="g12"><g
         clip-path="url(#clipPath16)"
         id="g14"><g
           transform="translate(65.5327,153.5923)"
           id="g20"><path
             id="path22"
             style="fill:none;stroke:#189dc7;stroke-width:12;stroke-linecap:butt;stroke-linejoin:miter;stroke-miterlimit:10;stroke-dasharray:none;stroke-opacity:1"
             d="m 0,0 c -13.929,10.867 -22.866,27.683 -22.866,46.557 0,32.769 26.939,59.334 60.17,59.334 33.231,0 60.17,-26.565 60.17,-59.334 0,-19.289 -9.335,-36.429 -23.793,-47.266" /></g><g
           transform="translate(78.29,176.5776)"
           id="g24"><path
             id="path26"
             style="fill:none;stroke:#189dc7;stroke-width:12.1239996;stroke-linecap:butt;stroke-linejoin:miter;stroke-miterlimit:10;stroke-dasharray:none;stroke-opacity:1"
             d="m 0,0 c -6.387,6.021 -10.353,14.427 -10.353,23.728 0,18.311 15.371,33.155 34.332,33.155 18.961,0 34.333,-14.844 34.333,-33.155 0,-8.852 -3.592,-16.893 -9.445,-22.839" /></g><g
           transform="translate(112.3027,195.9546)"
           id="g28"><path
             id="path30"
             style="fill:#189dc7;fill-opacity:1;fill-rule:nonzero;stroke:none"
             d="m 0,0 c 0,-5.78 -4.686,-10.465 -10.466,-10.465 -5.78,0 -10.466,4.685 -10.466,10.465 0,5.78 4.686,10.466 10.466,10.466 C -4.686,10.466 0,5.78 0,0" /></g><g
           transform="translate(112.3027,195.9546)"
           id="g32"><path
             id="path34"
             style="fill:none;stroke:#189dc7;stroke-width:12;stroke-linecap:butt;stroke-linejoin:miter;stroke-miterlimit:10;stroke-dasharray:none;stroke-opacity:1"
             d="m 0,0 c 0,-5.78 -4.686,-10.465 -10.466,-10.465 -5.78,0 -10.466,4.685 -10.466,10.465 0,5.78 4.686,10.466 10.466,10.466 C -4.686,10.466 0,5.78 0,0 Z" /></g><g
           transform="translate(98.0576,194.5688)"
           id="g36"><path
             id="path38"
             style="fill:none;stroke:#189dc7;stroke-width:12;stroke-linecap:round;stroke-linejoin:miter;stroke-miterlimit:10;stroke-dasharray:none;stroke-opacity:1"
             d="M 0,0 -75.556,-170.001" /></g><g
           transform="translate(106.9707,194.0586)"
           id="g40"><path
             id="path42"
             style="fill:#000000;fill-opacity:1;fill-rule:nonzero;stroke:#189dc7;stroke-width:12;stroke-linecap:round;stroke-linejoin:miter;stroke-miterlimit:10;stroke-dasharray:none;stroke-opacity:1"
             d="M 0,0 76.322,-168.981" /></g><g
           transform="translate(76.3574,138.207)"
           id="g44"><path
             id="path46"
             style="fill:none;stroke:#189dc7;stroke-width:12;stroke-linecap:round;stroke-linejoin:miter;stroke-miterlimit:10;stroke-dasharray:none;stroke-opacity:1"
             d="M 0,0 77.643,-49.207" /></g><g
           transform="translate(129.71,138.9229)"
           id="g48"><path
             id="path50"
             style="fill:none;stroke:#189dc7;stroke-width:12;stroke-linecap:butt;stroke-linejoin:miter;stroke-miterlimit:10;stroke-dasharray:none;stroke-opacity:1"
             d="M 0,0 -78.293,-49.297" /></g><g
           transform="translate(57.7271,97.6133)"
           id="g52"><path
             id="path54"
             style="fill:none;stroke:#189dc7;stroke-width:12;stroke-linecap:round;stroke-linejoin:miter;stroke-miterlimit:10;stroke-dasharray:none;stroke-opacity:1"
             d="M 0,0 125.273,-72.613" /></g><g
           transform="translate(146.6611,102.1816)"
           id="g56"><path
             id="path58"
             style="fill:none;stroke:#189dc7;stroke-width:12;stroke-linecap:round;stroke-linejoin:miter;stroke-miterlimit:10;stroke-dasharray:none;stroke-opacity:1"
             d="M 0,0 -124.16,-78.041" /></g></g></g></g></svg>