<?xml version="1.0" encoding="UTF-8" standalone="no"?>
<svg
   xmlns:dc="http://purl.org/dc/elements/1.1/"
   xmlns:cc="http://creativecommons.org/ns#"
   xmlns:rdf="http://www.w3.org/1999/02/22-rdf-syntax-ns#"
   xmlns:svg="http://www.w3.org/2000/svg"
   xmlns="http://www.w3.org/2000/svg"
   viewBox="0 0 675 675"
   height="675"
   width="675"
   xml:space="preserve"
   version="1.1"
   id="svg2"><metadata
     id="metadata8"><rdf:RDF><cc:Work
         rdf:about=""><dc:format>image/svg+xml</dc:format><dc:type
           rdf:resource="http://purl.org/dc/dcmitype/StillImage" /></cc:Work></rdf:RDF></metadata><defs
     id="defs6"><clipPath
       id="clipPath16"
       clipPathUnits="userSpaceOnUse"><path
         id="path18"
         d="M 0,540 540,540 540,0 0,0 0,540 Z" /></clipPath></defs><g
     transform="matrix(1.25,0,0,-1.25,0,675)"
     id="g10"><g
       id="g12"><g
         clip-path="url(#clipPath16)"
         id="g14"><g
           transform="translate(109.5557,264.103)"
           id="g20"><path
             id="path22"
             style="fill:none;stroke:#000000;stroke-width:33.24300003;stroke-linecap:round;stroke-linejoin:miter;stroke-miterlimit:10;stroke-dasharray:none;stroke-opacity:1"
             d="M 0,0 C -49.695,62.033 -56.622,160.094 3.566,225.726" /></g><g
           transform="translate(177,297.7627)"
           id="g24"><path
             id="path26"
             style="fill:none;stroke:#000000;stroke-width:32.5340004;stroke-linecap:round;stroke-linejoin:miter;stroke-miterlimit:10;stroke-dasharray:none;stroke-opacity:1"
             d="M 0,0 C -40,61.737 -35.541,111.752 0.557,153.144" /></g><g
           transform="translate(421.6953,489.8291)"
           id="g28"><path
             id="path30"
             style="fill:none;stroke:#000000;stroke-width:32.25699997;stroke-linecap:round;stroke-linejoin:miter;stroke-miterlimit:10;stroke-dasharray:none;stroke-opacity:1"
             d="M 0,0 C 58.853,-69.518 58.48,-158.94 0,-225.726" /></g><g
           transform="translate(358.1533,451.9067)"
           id="g32"><path
             id="path34"
             style="fill:none;stroke:#000000;stroke-width:32.5340004;stroke-linecap:round;stroke-linejoin:miter;stroke-miterlimit:10;stroke-dasharray:none;stroke-opacity:1"
             d="M 0,0 C 43.221,-60.206 30.986,-115.407 -1.965,-154.144" /></g><g
           transform="translate(313,376.2007)"
           id="g36"><path
             id="path38"
             style="fill:#000000;fill-opacity:1;fill-rule:nonzero;stroke:none"
             d="m 0,0 c 0,-24.853 -20.147,-45 -45,-45 -24.853,0 -45,20.147 -45,45 0,24.853 20.147,45 45,45 C -20.147,45 0,24.853 0,0" /></g><g
           transform="translate(313,376.2007)"
           id="g40"><path
             id="path42"
             style="fill:none;stroke:#000000;stroke-width:24.89699936;stroke-linecap:round;stroke-linejoin:miter;stroke-miterlimit:10;stroke-dasharray:none;stroke-opacity:1"
             d="m 0,0 c 0,-24.853 -20.147,-45 -45,-45 -24.853,0 -45,20.147 -45,45 0,24.853 20.147,45 45,45 C -20.147,45 0,24.853 0,0 Z" /></g><g
           transform="translate(260.0771,320.5884)"
           id="g44"><path
             id="path46"
             style="fill:none;stroke:#000000;stroke-width:33.88199997;stroke-linecap:round;stroke-linejoin:miter;stroke-miterlimit:10;stroke-dasharray:none;stroke-opacity:1"
             d="M 0,0 -130.635,-300.726" /></g><g
           transform="translate(275.8496,320.3682)"
           id="g48"><path
             id="path50"
             style="fill:none;stroke:#000000;stroke-width:33.88199997;stroke-linecap:round;stroke-linejoin:miter;stroke-miterlimit:10;stroke-dasharray:none;stroke-opacity:1"
             d="M 0,0 130.743,-300.679" /></g><g
           transform="translate(302.9219,215.2666)"
           id="g52"><path
             id="path54"
             style="fill:none;stroke:#000000;stroke-width:30.24500084;stroke-linecap:round;stroke-linejoin:miter;stroke-miterlimit:10;stroke-dasharray:none;stroke-opacity:1"
             d="M 0,0 -95.3,-35.533" /></g><g
           transform="translate(210.4736,169.9346)"
           id="g56"><path
             id="path58"
             style="fill:none;stroke:#000000;stroke-width:30.62199974;stroke-linecap:round;stroke-linejoin:miter;stroke-miterlimit:10;stroke-dasharray:none;stroke-opacity:1"
             d="M 0,0 144.218,-52.164" /></g><g
           transform="translate(357.7998,110.0752)"
           id="g60"><path
             id="path62"
             style="fill:none;stroke:#000000;stroke-width:29.33099937;stroke-linecap:round;stroke-linejoin:miter;stroke-miterlimit:10;stroke-dasharray:none;stroke-opacity:1"
             d="M 0,0 -203.389,-55.65" /></g></g></g></g></svg>