<?xml version="1.0" encoding="UTF-8" standalone="no"?>
<svg
   xmlns:ooo="http://xml.openoffice.org/svg/export"
   xmlns:dc="http://purl.org/dc/elements/1.1/"
   xmlns:cc="http://creativecommons.org/ns#"
   xmlns:rdf="http://www.w3.org/1999/02/22-rdf-syntax-ns#"
   xmlns:svg="http://www.w3.org/2000/svg"
   xmlns="http://www.w3.org/2000/svg"
   xmlns:sodipodi="http://sodipodi.sourceforge.net/DTD/sodipodi-0.dtd"
   xmlns:inkscape="http://www.inkscape.org/namespaces/inkscape"
   version="1.2"
   width="238.13mm"
   height="238.13mm"
   viewBox="0 0 23813 23813"
   preserveAspectRatio="xMidYMid"
   fill-rule="evenodd"
   stroke-width="28.222"
   stroke-linejoin="round"
   xml:space="preserve"
   id="svg3991"
   sodipodi:docname="tx_tower_6.svg"
   inkscape:version="0.92.4 (5da689c313, 2019-01-14)"><metadata
   id="metadata3995"><rdf:RDF><cc:Work
       rdf:about=""><dc:format>image/svg+xml</dc:format><dc:type
         rdf:resource="http://purl.org/dc/dcmitype/StillImage" /><dc:title /></cc:Work></rdf:RDF></metadata><sodipodi:namedview
   pagecolor="#ffffff"
   bordercolor="#666666"
   borderopacity="1"
   objecttolerance="10"
   gridtolerance="10"
   guidetolerance="10"
   inkscape:pageopacity="0"
   inkscape:pageshadow="2"
   inkscape:window-width="1366"
   inkscape:window-height="745"
   id="namedview3993"
   showgrid="false"
   inkscape:zoom="0.63998655"
   inkscape:cx="450.00946"
   inkscape:cy="441.68147"
   inkscape:window-x="1672"
   inkscape:window-y="271"
   inkscape:window-maximized="1"
   inkscape:current-layer="id1" />
 <defs
   class="ClipPathGroup"
   id="defs3861">
  <clipPath
   id="presentation_clip_path"
   clipPathUnits="userSpaceOnUse">
   <rect
   x="0"
   y="0"
   width="23813"
   height="23813"
   id="rect3855" />
  </clipPath>
  <clipPath
   id="presentation_clip_path_shrink"
   clipPathUnits="userSpaceOnUse">
   <rect
   x="23"
   y="23"
   width="23766"
   height="23766"
   id="rect3858" />
  </clipPath>
 
  
 
      
      
      
      
      
      
      
      
      
      
      
     
       
      
        
        
       
       
      
        
        
       
       
      
        
        
       
       
      
        
        
       
       
      
        
        
       
       
      
        
        
       
       
      
        
        
       
       
      
        
        
       
       
      
        
        
       
       
      
        
        
       </defs>
 <defs
   class="TextShapeIndex"
   id="defs3865">
  <g
   ooo:slide="id1"
   ooo:id-list="id3 id4 id5 id6 id7 id8 id9 id10 id11 id12 id13"
   id="g3863" />
 </defs>
 <defs
   class="EmbeddedBulletChars"
   id="defs3897">
  <g
   id="bullet-char-template-57356"
   transform="scale(0.00048828125,-0.00048828125)">
   <path
   d="M 580,1141 L 1163,571 580,0 -4,571 580,1141 Z"
   id="path3867" />
  </g>
  <g
   id="bullet-char-template-57354"
   transform="scale(0.00048828125,-0.00048828125)">
   <path
   d="M 8,1128 L 1137,1128 1137,0 8,0 8,1128 Z"
   id="path3870" />
  </g>
  <g
   id="bullet-char-template-10146"
   transform="scale(0.00048828125,-0.00048828125)">
   <path
   d="M 174,0 L 602,739 174,1481 1456,739 174,0 Z M 1358,739 L 309,1346 659,739 1358,739 Z"
   id="path3873" />
  </g>
  <g
   id="bullet-char-template-10132"
   transform="scale(0.00048828125,-0.00048828125)">
   <path
   d="M 2015,739 L 1276,0 717,0 1260,543 174,543 174,936 1260,936 717,1481 1274,1481 2015,739 Z"
   id="path3876" />
  </g>
  <g
   id="bullet-char-template-10007"
   transform="scale(0.00048828125,-0.00048828125)">
   <path
   d="M 0,-2 C -7,14 -16,27 -25,37 L 356,567 C 262,823 215,952 215,954 215,979 228,992 255,992 264,992 276,990 289,987 310,991 331,999 354,1012 L 381,999 492,748 772,1049 836,1024 860,1049 C 881,1039 901,1025 922,1006 886,937 835,863 770,784 769,783 710,716 594,584 L 774,223 C 774,196 753,168 711,139 L 727,119 C 717,90 699,76 672,76 641,76 570,178 457,381 L 164,-76 C 142,-110 111,-127 72,-127 30,-127 9,-110 8,-76 1,-67 -2,-52 -2,-32 -2,-23 -1,-13 0,-2 Z"
   id="path3879" />
  </g>
  <g
   id="bullet-char-template-10004"
   transform="scale(0.00048828125,-0.00048828125)">
   <path
   d="M 285,-33 C 182,-33 111,30 74,156 52,228 41,333 41,471 41,549 55,616 82,672 116,743 169,778 240,778 293,778 328,747 346,684 L 369,508 C 377,444 397,411 428,410 L 1163,1116 C 1174,1127 1196,1133 1229,1133 1271,1133 1292,1118 1292,1087 L 1292,965 C 1292,929 1282,901 1262,881 L 442,47 C 390,-6 338,-33 285,-33 Z"
   id="path3882" />
  </g>
  <g
   id="bullet-char-template-9679"
   transform="scale(0.00048828125,-0.00048828125)">
   <path
   d="M 813,0 C 632,0 489,54 383,161 276,268 223,411 223,592 223,773 276,916 383,1023 489,1130 632,1184 813,1184 992,1184 1136,1130 1245,1023 1353,916 1407,772 1407,592 1407,412 1353,268 1245,161 1136,54 992,0 813,0 Z"
   id="path3885" />
  </g>
  <g
   id="bullet-char-template-8226"
   transform="scale(0.00048828125,-0.00048828125)">
   <path
   d="M 346,457 C 273,457 209,483 155,535 101,586 74,649 74,723 74,796 101,859 155,911 209,963 273,989 346,989 419,989 480,963 531,910 582,859 608,796 608,723 608,648 583,586 532,535 482,483 420,457 346,457 Z"
   id="path3888" />
  </g>
  <g
   id="bullet-char-template-8211"
   transform="scale(0.00048828125,-0.00048828125)">
   <path
   d="M -4,459 L 1135,459 1135,606 -4,606 -4,459 Z"
   id="path3891" />
  </g>
  <g
   id="bullet-char-template-61548"
   transform="scale(0.00048828125,-0.00048828125)">
   <path
   d="M 173,740 C 173,903 231,1043 346,1159 462,1274 601,1332 765,1332 928,1332 1067,1274 1183,1159 1299,1043 1357,903 1357,740 1357,577 1299,437 1183,322 1067,206 928,148 765,148 601,148 462,206 346,322 231,437 173,577 173,740 Z"
   id="path3894" />
  </g>
 </defs>
 <defs
   class="TextEmbeddedBitmaps"
   id="defs3899" />
 <g
   id="g3904">
  <g
   id="id2"
   class="Master_Slide">
   <g
   id="bg-id2"
   class="Background" />
   <g
   id="bo-id2"
   class="BackgroundObjects" />
  </g>
 </g>
 <g
   id="g3987">
   <g
   id="container-id1">
    <g
   clip-path="url(#presentation_clip_path)"
   class="Slide"
   id="id1">
     
    <g
   id="g89"><rect
     style="fill:none;stroke:none"
     id="rect3906"
     height="10911"
     width="3173"
     y="1716"
     x="2359"
     class="BoundingBox" /><path
     style="fill:none;stroke:#ff0000;stroke-width:1466;stroke-linejoin:miter"
     inkscape:connector-curvature="0"
     id="path3908"
     d="M 4832,12167 C 2640,9431 2334,5106 4990,2212" /><rect
     style="fill:none;stroke:none"
     id="rect3913"
     height="7618"
     width="2570"
     y="3457"
     x="5841"
     class="BoundingBox" /><path
     style="fill:none;stroke:#ff0000;stroke-width:1435;stroke-linejoin:miter"
     inkscape:connector-curvature="0"
     id="path3915"
     d="M 7807,10683 C 6042,7960 6239,5755 7832,3929" /><rect
     style="fill:none;stroke:none"
     id="rect3920"
     height="10885"
     width="3197"
     y="1752"
     x="18053"
     class="BoundingBox" /><path
     style="fill:none;stroke:#ff0000;stroke-width:1422;stroke-linejoin:miter"
     inkscape:connector-curvature="0"
     id="path3922"
     d="m 18596,2212 c 2597,3066 2580,7010 0,9955" /><rect
     style="fill:none;stroke:none"
     id="rect3927"
     height="7684"
     width="2581"
     y="3466"
     x="15160"
     class="BoundingBox" /><path
     style="fill:none;stroke:#ff0000;stroke-width:1435;stroke-linejoin:miter;fill-opacity:1;stroke-opacity:1"
     inkscape:connector-curvature="0"
     id="path3929"
     d="m 15794,3885 c 1907,2655 1367,5090 -87,6798" /><g
     id="g3939"
     class="com.sun.star.drawing.ClosedBezierShape">
       <g
   id="id7">
        <rect
   style="fill:none;stroke:none"
   id="rect3934"
   height="3971"
   width="3971"
   y="5239"
   x="9834"
   class="BoundingBox" />
        <path
   style="fill:#fea702;stroke:none"
   inkscape:connector-curvature="0"
   id="path3936"
   d="m 13804,7224 c 0,1096 -889,1985 -1985,1985 -1096,0 -1985,-889 -1985,-1985 0,-1096 889,-1985 1985,-1985 1096,0 1985,889 1985,1985 z" />
       </g>
      </g><rect
     style="fill:none;stroke:none"
     id="rect3941"
     height="5069"
     width="5069"
     y="4690"
     x="9285"
     class="BoundingBox" /><path
     style="fill:#ff0000;stroke:#ff0000;stroke-width:1098;stroke-linejoin:miter;fill-opacity:1"
     inkscape:connector-curvature="0"
     id="path3943"
     d="m 13804,7224 c 0,1096 -889,1985 -1985,1985 -1096,0 -1985,-889 -1985,-1985 0,-1096 889,-1985 1985,-1985 1096,0 1985,889 1985,1985 z" /><rect
     style="fill:none;stroke:none"
     id="rect3948"
     height="13859"
     width="7135"
     y="9377"
     x="5022"
     class="BoundingBox" /><path
     style="fill:none;stroke:#ff0000;stroke-width:1494;stroke-linejoin:miter"
     inkscape:connector-curvature="0"
     id="path3950"
     d="M 11470,9675 5708,22937" /><rect
     style="fill:none;stroke:none"
     id="rect3955"
     height="13857"
     width="7139"
     y="9387"
     x="11478"
     class="BoundingBox" /><path
     style="fill:none;stroke:#ff0000;stroke-width:1494;stroke-linejoin:miter"
     inkscape:connector-curvature="0"
     id="path3957"
     d="m 12164,9685 5766,13260" /><rect
     style="fill:none;stroke:none"
     id="rect3962"
     height="2819"
     width="4672"
     y="13695"
     x="8922"
     class="BoundingBox" /><path
     style="fill:none;stroke:#ff0000;stroke-width:1334;stroke-linejoin:miter"
     inkscape:connector-curvature="0"
     id="path3964"
     d="M 13359,14320 9156,15888" /><rect
     style="fill:none;stroke:none"
     id="rect3969"
     height="3572"
     width="6822"
     y="15684"
     x="9051"
     class="BoundingBox" /><path
     style="fill:#ff0000;stroke:#ff0000;stroke-width:1350;stroke-linejoin:miter"
     inkscape:connector-curvature="0"
     id="path3971"
     d="m 9281,16319 6361,2301" /><rect
     style="fill:none;stroke:none"
     id="rect3976"
     height="3704"
     width="9313"
     y="18334"
     x="6638"
     class="BoundingBox" /><path
     style="fill:none;stroke:#ff0000;stroke-width:1293;stroke-linejoin:miter"
     inkscape:connector-curvature="0"
     id="path3978"
     d="M 15779,18958 6809,21413" /></g></g>
   </g>
  </g>
</svg>